<svg version="1.1" id="Layer_1" xmlns="http://www.w3.org/2000/svg" xmlns:xlink="http://www.w3.org/1999/xlink" x="0px" y="0px"
	 width="100%" viewBox="0 0 1024 768" enable-background="new 0 0 1024 768" xml:space="preserve">
<path fill="#000000" opacity="1.000000" stroke="none" 
	d="
M452.837646,313.162476 
	C473.559479,333.906311 494.030396,354.401031 514.766663,375.161469 
	C516.163940,373.031311 515.631104,371.180695 515.634583,369.477356 
	C515.679199,347.482513 515.750183,325.487091 515.622803,303.492920 
	C515.586853,297.296570 517.158020,292.205536 523.213196,289.619354 
	C529.356934,286.995270 534.146301,289.706146 538.433228,293.995728 
	C561.516785,317.093536 584.810608,339.985657 607.618103,363.352631 
	C616.718994,372.676788 626.909790,377.177124 640.036072,376.888306 
	C663.519226,376.371552 687.022034,376.732208 710.516663,376.759430 
	C721.729919,376.772430 726.230713,381.321533 726.235657,392.575195 
	C726.246582,417.402832 726.252441,442.230469 726.236389,467.058105 
	C726.229187,478.164337 721.645386,482.918304 710.468018,482.971313 
	C685.807434,483.088318 661.145630,483.147919 636.485413,483.012726 
	C626.065186,482.955627 617.030212,479.174683 609.574707,471.699371 
	C580.986450,443.035339 552.353088,414.416351 523.723267,385.793823 
	C521.870361,383.941345 519.905762,382.200500 517.869446,380.291748 
	C516.533447,382.336395 517.045044,384.196136 517.042725,385.935181 
	C517.014648,406.763611 517.044861,427.592102 517.057678,448.420593 
	C517.058594,449.920166 517.061523,451.420166 517.031189,452.919281 
	C516.912170,458.799011 514.439087,463.292114 508.850342,465.461182 
	C503.406921,467.573853 498.814941,465.718079 494.823792,461.715424 
	C476.118011,442.955902 457.376282,424.232239 438.641632,405.501526 
	C436.167572,403.027924 433.744537,400.494019 431.148010,398.154419 
	C427.717163,395.063019 423.789215,393.456024 419.243774,395.560944 
	C414.595795,397.713257 412.217010,401.292450 412.241425,406.621521 
	C412.333862,426.783081 412.273926,446.945343 412.260925,467.107361 
	C412.253723,478.241425 407.620972,483.013763 396.530151,483.038971 
	C371.702637,483.095337 346.874817,483.104279 322.047363,483.038696 
	C311.098846,483.009796 306.615448,478.404572 306.616058,467.536163 
	C306.617432,442.208679 306.707672,416.880829 306.593781,391.553894 
	C306.550018,381.821899 309.988770,373.604065 316.715149,366.827942 
	C339.838715,343.533417 362.957123,320.231384 386.314941,297.172729 
	C400.872314,282.801788 422.289703,283.071228 437.022888,297.375885 
	C442.281891,302.481873 447.402802,307.730072 452.837646,313.162476 
z"/>
</svg>